<svg xmlns="http://www.w3.org/2000/svg" width="516.563" height="140.968" viewBox="0 0 516.563 140.968">
  <defs>
    <style>
      .cls-1 {
        fill: #e50914;
        fill-rule: evenodd;
      }
    </style>
  </defs>
  <path id="flix-mix" class="cls-1" d="M192.05,360.421q10.806-1.683,21.631-3.225,0.035-29.369.07-58.738,14-1.276,28.021-2.4,0.019-9.41.038-18.818-14.025.918-28.036,1.96l0.045-37.554q17.88-.746,35.774-1.379,0.02-9.354.04-18.707-28.778.611-57.533,1.4-0.025,68.732-.05,137.465h0Zm75.663-10.027q28.746-3.147,57.58-5.305l0.045-17.834q-17.93,1.185-35.832,2.706,0.143-54.585.284-109.17-10.882.186-21.763,0.4-0.156,64.6-.314,129.208h0Zm76.012-6.583q10.906-.7,21.819-1.251,0.125-61.378.248-122.756-10.888.1-21.776,0.221Zm40.075-2.08q10.321-.414,20.649-0.7,8.167-21.4,16.319-42.617l0.4,0q7.92,21.02,15.858,42.032,11.521-.1,23.044-0.038-12.623-31-25.2-61.839,12.01-29.632,23.985-59.142-10.3-.007-20.593.006-7.531,19.543-15.078,39.149l-0.4,0q-7.318-19.5-14.623-39.063-11.484.053-22.967,0.132,11.928,29.728,23.892,59.175Q396.458,310.05,383.8,341.731h0Zm94.54-1.134q9.534,0.151,19.067.412-0.055-45.988-.11-91.977l0.4,0q7.98,46.074,15.994,92.5,9.134,0.338,18.261.774,7.85-46.014,15.667-92.472l0.4,0.009q0.1,46.659.206,93.319,10.314,0.593,20.621,1.311l-0.306-124.332q-15.537-.19-31.079-0.332-6.84,43.875-13.7,87.376l-0.4-.013Q516.335,263.2,509.34,219.6q-15.541-.095-31.086-0.139Q478.3,280.027,478.34,340.6Zm114.667,5.737q10.892,0.916,21.769,1.976-0.165-63.746-.331-127.492-10.883-.186-21.767-0.348Q592.843,283.4,593.007,346.334Zm39.954,3.845q10.273,1.113,20.535,2.351,8.041-21.849,16.09-44.2l0.394,0.036q7.935,23.861,15.841,48.387,11.418,1.605,22.815,3.365-12.493-37.015-25.075-72.3Q695.453,256,707.389,222.87q-10.278-.278-20.558-0.533-7.485,21.539-14.952,42.546l-0.395-.023q-7.346-21.872-14.708-43.221-11.472-.248-22.945-0.468,12.045,31.776,24.065,64.7Q645.422,318.582,632.961,350.179Z" transform="translate(-192.062 -219.438)"/>
</svg>
